<svg xmlns="http://www.w3.org/2000/svg" width="900" height="340" viewBox="0 0 900 340" role="img" aria-label="Profile banner for Soroosh">
<defs>
  <linearGradient id="accent" x1="0" y1="0" x2="1" y2="0"><stop stop-color="#ff6b4a"/><stop offset=".55" stop-color="#ff9f43"/><stop offset="1" stop-color="#ffd166"/></linearGradient>
  <radialGradient id="flare" cx="83%" cy="35%" r="55%"><stop offset="0" stop-color="#ff6b4a" stop-opacity=".22"/><stop offset=".5" stop-color="#ff9f43" stop-opacity=".07"/><stop offset="1" stop-color="#09080d" stop-opacity="0"/></radialGradient>
  <filter id="glow"><feGaussianBlur stdDeviation="8" result="blur"/><feMerge><feMergeNode in="blur"/><feMergeNode in="SourceGraphic"/></feMerge></filter>
  <style>.display{font:700 54px 'Segoe UI',Inter,sans-serif;fill:#fff8ef;letter-spacing:-1.8px}.role{font:600 18px 'Segoe UI',Inter,sans-serif;fill:#fff8ef}.body{font:15px 'Segoe UI',Inter,sans-serif;fill:#b7afbf}.label{font:700 11px 'Segoe UI',Inter,sans-serif;fill:#ff9f43;letter-spacing:1.7px}.tag{font:600 12px 'Segoe UI',Inter,sans-serif;fill:#fff8ef}.metric{font:700 35px 'Segoe UI',Inter,sans-serif;fill:#fff8ef}.meta{font:700 10px 'Segoe UI',Inter,sans-serif;fill:#b7afbf;letter-spacing:1.2px}@keyframes appear{from{opacity:0;transform:translateY(8px)}to{opacity:1;transform:translateY(0)}}@keyframes breathe{50%{opacity:.55}}.intro{animation:appear .55s cubic-bezier(.16,1,.3,1) both}.pulse{animation:breathe 3.6s ease-in-out infinite}@media(prefers-reduced-motion:reduce){.intro,.pulse{animation:none}}</style>
</defs>
<rect width="900" height="340" rx="26" fill="#16131d"/>
<rect x="7" y="7" width="886" height="326" rx="21" fill="#100e16" stroke="#393143"/>
<rect x="7" y="7" width="886" height="326" rx="21" fill="url(#flare)"/>
<path d="M28 8h844" stroke="url(#accent)" stroke-width="3" stroke-linecap="round"/>
<g class="intro">
  <circle cx="43" cy="43" r="5" fill="#ff6b4a" class="pulse" filter="url(#glow)"/>
  <text x="57" y="47" class="label">DEVELOPER PROFILE  /  @SOROOSH185</text>
  <text x="42" y="117" class="display">Soroosh</text>
  <text x="42" y="151" class="role">Python &amp; Go Developer  ·  Iran</text>
  <text x="42" y="196" class="body">Learn fast, build useful things, ship quality work.</text>
  <text x="42" y="231" class="label">BUILDING NOW</text>
  <text x="42" y="255" class="body">AI / ML · Bots · Backend Systems · Automation</text>
  <g transform="translate(42 282)"><rect width="98" height="28" rx="14" fill="#191620" stroke="#393143"/><text x="49" y="18" text-anchor="middle" class="tag">Python</text></g><g transform="translate(150 282)"><rect width="98" height="28" rx="14" fill="#191620" stroke="#393143"/><text x="49" y="18" text-anchor="middle" class="tag">Go</text></g><g transform="translate(258 282)"><rect width="98" height="28" rx="14" fill="#191620" stroke="#393143"/><text x="49" y="18" text-anchor="middle" class="tag">FastAPI</text></g><g transform="translate(366 282)"><rect width="98" height="28" rx="14" fill="#191620" stroke="#393143"/><text x="49" y="18" text-anchor="middle" class="tag">Flutter</text></g><g transform="translate(474 282)"><rect width="98" height="28" rx="14" fill="#191620" stroke="#393143"/><text x="49" y="18" text-anchor="middle" class="tag">Docker</text></g>
</g>
<g transform="translate(616 53)">
  <rect width="242" height="234" rx="22" fill="#191620" stroke="#393143"/>
  <text x="22" y="34" class="label">LIVE SNAPSHOT</text>
  <circle cx="206" cy="29" r="4" fill="#ffd166" class="pulse"/>
  <path d="M22 52h198" stroke="#393143"/>
  <text x="22" y="104" class="metric">5</text>
  <text x="22" y="125" class="meta">REPOSITORIES</text>
  <text x="139" y="104" class="metric">7</text>
  <text x="139" y="125" class="meta">TOTAL STARS</text>
  <path d="M22 147h198" stroke="#393143"/>
  <text x="22" y="191" class="metric">5</text>
  <text x="22" y="212" class="meta">FOLLOWERS</text>
  <path d="M139 181h67" stroke="#393143" stroke-width="6" stroke-linecap="round"/>
  <path d="M139 181h21" stroke="url(#accent)" stroke-width="6" stroke-linecap="round"/>
</g>
<text x="858" y="317" text-anchor="end" class="meta">LIVE PUBLIC DATA  /  AUTO-REFRESHED</text>
</svg>